<svg xmlns="http://www.w3.org/2000/svg" width="18" height="18" fill="none" xmlns:v="https://vecta.io/nano"><path d="M5 4.1v.75a.75.75 0 0 0 .648-.372L5 4.1zm1.4-2.4V.95a.75.75 0 0 0-.648.372L6.4 1.7zm5.2 0l.648-.378A.75.75 0 0 0 11.6.95v.75zM13 4.1l-.648.378A.75.75 0 0 0 13 4.85V4.1zM1.75 14.3V6.1H.25v8.2h1.5zM3 4.85h2v-1.5H3v1.5zm2.648-.372l1.4-2.4-1.296-.756-1.4 2.4 1.296.756zM6.4 2.45h5.2V.95H6.4v1.5zm4.552-.372l1.4 2.4 1.296-.756-1.4-2.4-1.296.756zM13 4.85h2v-1.5h-2v1.5zm3.25 1.25v8.2h1.5V6.1h-1.5zm0 8.2A1.25 1.25 0 0 1 15 15.55v1.5a2.75 2.75 0 0 0 2.75-2.75h-1.5zM15 4.85a1.25 1.25 0 0 1 1.25 1.25h1.5A2.75 2.75 0 0 0 15 3.35v1.5zM1.75 6.1A1.25 1.25 0 0 1 3 4.85v-1.5A2.75 2.75 0 0 0 .25 6.1h1.5zM3 15.55a1.25 1.25 0 0 1-1.25-1.25H.25A2.75 2.75 0 0 0 3 17.05v-1.5zm8.25-5.85A2.25 2.25 0 0 1 9 11.95v1.5a3.75 3.75 0 0 0 3.75-3.75h-1.5zM9 11.95A2.25 2.25 0 0 1 6.75 9.7h-1.5A3.75 3.75 0 0 0 9 13.45v-1.5zM6.75 9.7A2.25 2.25 0 0 1 9 7.45v-1.5A3.75 3.75 0 0 0 5.25 9.7h1.5zM9 7.45a2.25 2.25 0 0 1 2.25 2.25h1.5A3.75 3.75 0 0 0 9 5.95v1.5zm6 8.1H3v1.5h12v-1.5z" fill="#fdfdfd"/></svg>